<svg height="5038" width="720" xmlns="http://www.w3.org/2000/svg">
<rect height="5038" fill="#555" width="720"></rect>
<text fill="#7f7" font-family="Courier New" font-size="12" xml:space="preserve">
<tspan x="10" y="26"></tspan>

<tspan x="10" y="42">\x1b[35m[MODE_BUILD=npmTestPublished]\x1b[0m - 2020-06-09T14:26:01.861Z - npm-testing /tmp/npmTe\</tspan>
<tspan x="10" y="58">stPublished/node_modules/apidoc-lite</tspan>

<tspan x="10" y="74"></tspan>

<tspan x="10" y="90"></tspan>

<tspan x="10" y="106">istanbul - covering $ /home/travis/.nvm/versions/node/v14.4.0/bin/node /tmp/npmTestPublished/nod\</tspan>
<tspan x="10" y="122">e_modules/apidoc-lite/test.js</tspan>

<tspan x="10" y="138">&gt; jslint - 3ms - /tmp/npmTestPublished/node_modules/apidoc-lite/README.md</tspan>

<tspan x="10" y="154">jslint - 13ms - /tmp/npmTestPublished/node_modules/apidoc-lite/npm_scripts.sh</tspan>

<tspan x="10" y="170">--- /tmp/npmTestPublished/node_modules/apidoc-lite/package.json.autofix.old	2020-06-09 14:26:02.\</tspan>
<tspan x="10" y="186">258982226 +0000</tspan>

<tspan x="10" y="202">+++ /tmp/npmTestPublished/node_modules/apidoc-lite/package.json	2020-06-09 14:26:02.258982226 +0\</tspan>
<tspan x="10" y="218">000</tspan>

<tspan x="10" y="234">@@ -1,77 +1,77 @@</tspan>

<tspan x="10" y="250"> {</tspan>

<tspan x="10" y="266">-  "_from": "apidoc-lite",</tspan>

<tspan x="10" y="282">-  "_id": "apidoc-lite@2020.6.8",</tspan>

<tspan x="10" y="298">-  "_inBundle": false,</tspan>

<tspan x="10" y="314">-  "_integrity": "sha512-KIXsJuIxCwXiezruDLgHE0ZRe0Q66OQEmQyIuQzJ+vd125JmI7nDxkQtjEUsic9eENj0OJg\</tspan>
<tspan x="10" y="330">f3Udu70qruNUECQ==",</tspan>

<tspan x="10" y="346">-  "_location": "/apidoc-lite",</tspan>

<tspan x="10" y="362">-  "_phantomChildren": {},</tspan>

<tspan x="10" y="378">-  "_requested": {</tspan>

<tspan x="10" y="394">-    "type": "tag",</tspan>

<tspan x="10" y="410">-    "registry": true,</tspan>

<tspan x="10" y="426">-    "raw": "apidoc-lite",</tspan>

<tspan x="10" y="442">+    "_from": "apidoc-lite",</tspan>

<tspan x="10" y="458">+    "_id": "apidoc-lite@2020.6.8",</tspan>

<tspan x="10" y="474">+    "_inBundle": false,</tspan>

<tspan x="10" y="490">+    "_integrity": "sha512-KIXsJuIxCwXiezruDLgHE0ZRe0Q66OQEmQyIuQzJ+vd125JmI7nDxkQtjEUsic9eENj0O\</tspan>
<tspan x="10" y="506">Jgf3Udu70qruNUECQ==",</tspan>

<tspan x="10" y="522">+    "_location": "/apidoc-lite",</tspan>

<tspan x="10" y="538">+    "_phantomChildren": {},</tspan>

<tspan x="10" y="554">+    "_requested": {</tspan>

<tspan x="10" y="570">+        "escapedName": "apidoc-lite",</tspan>

<tspan x="10" y="586">+        "fetchSpec": "latest",</tspan>

<tspan x="10" y="602">+        "name": "apidoc-lite",</tspan>

<tspan x="10" y="618">+        "raw": "apidoc-lite",</tspan>

<tspan x="10" y="634">+        "rawSpec": "",</tspan>

<tspan x="10" y="650">+        "registry": true,</tspan>

<tspan x="10" y="666">+        "saveSpec": null,</tspan>

<tspan x="10" y="682">+        "type": "tag"</tspan>

<tspan x="10" y="698">+    },</tspan>

<tspan x="10" y="714">+    "_requiredBy_": [</tspan>

<tspan x="10" y="730">+        "#USER",</tspan>

<tspan x="10" y="746">+        "/"</tspan>

<tspan x="10" y="762">+    ],</tspan>

<tspan x="10" y="778">+    "_resolved": "https://registry.npmjs.org/apidoc-lite/-/apidoc-lite-2020.6.8.tgz",</tspan>

<tspan x="10" y="794">+    "_shasum": "1fee1e42b5ecd70f18bc9f65503deec79fe4d750",</tspan>

<tspan x="10" y="810">+    "_spec": "apidoc-lite",</tspan>

<tspan x="10" y="826">+    "_where": "/tmp/npmTestPublished",</tspan>

<tspan x="10" y="842">+    "author": {</tspan>

<tspan x="10" y="858">+        "email": "kaizhu256@gmail.com",</tspan>

<tspan x="10" y="874">+        "name": "kai zhu"</tspan>

<tspan x="10" y="890">+    },</tspan>

<tspan x="10" y="906">+    "bin": {</tspan>

<tspan x="10" y="922">+        "apidoc-lite": "lib.apidoc.js"</tspan>

<tspan x="10" y="938">+    },</tspan>

<tspan x="10" y="954">+    "bugs": {</tspan>

<tspan x="10" y="970">+        "url": "https://github.com/kaizhu256/node-apidoc-lite/issues"</tspan>

<tspan x="10" y="986">+    },</tspan>

<tspan x="10" y="1002">+    "bundleDependencies": false,</tspan>

<tspan x="10" y="1018">+    "deprecated": false,</tspan>

<tspan x="10" y="1034">+    "description": "this zero-dependency package will auto-generate documentation for your npm-\</tspan>
<tspan x="10" y="1050">package with zero-config",</tspan>

<tspan x="10" y="1066">+    "devDependencies": {</tspan>

<tspan x="10" y="1082">+        "utility2": "github:kaizhu256/node-utility2#alpha"</tspan>

<tspan x="10" y="1098">+    },</tspan>

<tspan x="10" y="1114">+    "engines": {</tspan>

<tspan x="10" y="1130">+        "node": "&gt;=12.0"</tspan>

<tspan x="10" y="1146">+    },</tspan>

<tspan x="10" y="1162">+    "fileCount": 8,</tspan>

<tspan x="10" y="1178">+    "homepage": "https://github.com/kaizhu256/node-apidoc-lite",</tspan>

<tspan x="10" y="1194">+    "keywords": [</tspan>

<tspan x="10" y="1210">+        "apidoc",</tspan>

<tspan x="10" y="1226">+        "documentation-generator",</tspan>

<tspan x="10" y="1242">+        "doxygen"</tspan>

<tspan x="10" y="1258">+    ],</tspan>

<tspan x="10" y="1274">+    "license": "MIT",</tspan>

<tspan x="10" y="1290">+    "main": "lib.apidoc.js",</tspan>

<tspan x="10" y="1306">     "name": "apidoc-lite",</tspan>

<tspan x="10" y="1322">-    "escapedName": "apidoc-lite",</tspan>

<tspan x="10" y="1338">-    "rawSpec": "",</tspan>

<tspan x="10" y="1354">-    "saveSpec": null,</tspan>

<tspan x="10" y="1370">-    "fetchSpec": "latest"</tspan>

<tspan x="10" y="1386">-  },</tspan>

<tspan x="10" y="1402">-  "_requiredBy_": [</tspan>

<tspan x="10" y="1418">-    "#USER",</tspan>

<tspan x="10" y="1434">-    "/"</tspan>

<tspan x="10" y="1450">-  ],</tspan>

<tspan x="10" y="1466">-  "_resolved": "https://registry.npmjs.org/apidoc-lite/-/apidoc-lite-2020.6.8.tgz",</tspan>

<tspan x="10" y="1482">-  "_shasum": "1fee1e42b5ecd70f18bc9f65503deec79fe4d750",</tspan>

<tspan x="10" y="1498">-  "_spec": "apidoc-lite",</tspan>

<tspan x="10" y="1514">-  "_where": "/tmp/npmTestPublished",</tspan>

<tspan x="10" y="1530">-  "author": {</tspan>

<tspan x="10" y="1546">-    "name": "kai zhu",</tspan>

<tspan x="10" y="1562">-    "email": "kaizhu256@gmail.com"</tspan>

<tspan x="10" y="1578">-  },</tspan>

<tspan x="10" y="1594">-  "bin": {</tspan>

<tspan x="10" y="1610">-    "apidoc-lite": "lib.apidoc.js"</tspan>

<tspan x="10" y="1626">-  },</tspan>

<tspan x="10" y="1642">-  "bugs": {</tspan>

<tspan x="10" y="1658">-    "url": "https://github.com/kaizhu256/node-apidoc-lite/issues"</tspan>

<tspan x="10" y="1674">-  },</tspan>

<tspan x="10" y="1690">-  "bundleDependencies": false,</tspan>

<tspan x="10" y="1706">-  "deprecated": false,</tspan>

<tspan x="10" y="1722">-  "description": "this zero-dependency package will auto-generate documentation for your npm-pa\</tspan>
<tspan x="10" y="1738">ckage with zero-config",</tspan>

<tspan x="10" y="1754">-  "devDependencies": {</tspan>

<tspan x="10" y="1770">-    "utility2": "github:kaizhu256/node-utility2#alpha"</tspan>

<tspan x="10" y="1786">-  },</tspan>

<tspan x="10" y="1802">-  "engines": {</tspan>

<tspan x="10" y="1818">-    "node": "&gt;=12.0"</tspan>

<tspan x="10" y="1834">-  },</tspan>

<tspan x="10" y="1850">-  "fileCount": 8,</tspan>

<tspan x="10" y="1866">-  "homepage": "https://github.com/kaizhu256/node-apidoc-lite",</tspan>

<tspan x="10" y="1882">-  "keywords": [</tspan>

<tspan x="10" y="1898">-    "apidoc",</tspan>

<tspan x="10" y="1914">-    "documentation-generator",</tspan>

<tspan x="10" y="1930">-    "doxygen"</tspan>

<tspan x="10" y="1946">-  ],</tspan>

<tspan x="10" y="1962">-  "license": "MIT",</tspan>

<tspan x="10" y="1978">-  "main": "lib.apidoc.js",</tspan>

<tspan x="10" y="1994">-  "name": "apidoc-lite",</tspan>

<tspan x="10" y="2010">-  "nameAliasPublish": "npmdoc",</tspan>

<tspan x="10" y="2026">-  "nameLib": "apidoc",</tspan>

<tspan x="10" y="2042">-  "nameOriginal": "apidoc-lite",</tspan>

<tspan x="10" y="2058">-  "os": [</tspan>

<tspan x="10" y="2074">-    "darwin",</tspan>

<tspan x="10" y="2090">-    "linux"</tspan>

<tspan x="10" y="2106">-  ],</tspan>

<tspan x="10" y="2122">-  "repository": {</tspan>

<tspan x="10" y="2138">-    "type": "git",</tspan>

<tspan x="10" y="2154">-    "url": "git+https://github.com/kaizhu256/node-apidoc-lite.git"</tspan>

<tspan x="10" y="2170">-  },</tspan>

<tspan x="10" y="2186">-  "scripts": {</tspan>

<tspan x="10" y="2202">-    "build-ci": "./npm_scripts.sh",</tspan>

<tspan x="10" y="2218">-    "env": "env",</tspan>

<tspan x="10" y="2234">-    "eval": "./npm_scripts.sh",</tspan>

<tspan x="10" y="2250">-    "heroku-postbuild": "./npm_scripts.sh",</tspan>

<tspan x="10" y="2266">-    "postinstall": "./npm_scripts.sh",</tspan>

<tspan x="10" y="2282">-    "start": "./npm_scripts.sh",</tspan>

<tspan x="10" y="2298">-    "test": "./npm_scripts.sh",</tspan>

<tspan x="10" y="2314">-    "utility2": "./npm_scripts.sh"</tspan>

<tspan x="10" y="2330">-  },</tspan>

<tspan x="10" y="2346">-  "version": "2020.6.8"</tspan>

<tspan x="10" y="2362">+    "nameAliasPublish": "npmdoc",</tspan>

<tspan x="10" y="2378">+    "nameLib": "apidoc",</tspan>

<tspan x="10" y="2394">+    "nameOriginal": "apidoc-lite",</tspan>

<tspan x="10" y="2410">+    "os": [</tspan>

<tspan x="10" y="2426">+        "darwin",</tspan>

<tspan x="10" y="2442">+        "linux"</tspan>

<tspan x="10" y="2458">+    ],</tspan>

<tspan x="10" y="2474">+    "repository": {</tspan>

<tspan x="10" y="2490">+        "type": "git",</tspan>

<tspan x="10" y="2506">+        "url": "git+https://github.com/kaizhu256/node-apidoc-lite.git"</tspan>

<tspan x="10" y="2522">+    },</tspan>

<tspan x="10" y="2538">+    "scripts": {</tspan>

<tspan x="10" y="2554">+        "build-ci": "./npm_scripts.sh",</tspan>

<tspan x="10" y="2570">+        "env": "env",</tspan>

<tspan x="10" y="2586">+        "eval": "./npm_scripts.sh",</tspan>

<tspan x="10" y="2602">+        "heroku-postbuild": "./npm_scripts.sh",</tspan>

<tspan x="10" y="2618">+        "postinstall": "./npm_scripts.sh",</tspan>

<tspan x="10" y="2634">+        "start": "./npm_scripts.sh",</tspan>

<tspan x="10" y="2650">+        "test": "./npm_scripts.sh",</tspan>

<tspan x="10" y="2666">+        "utility2": "./npm_scripts.sh"</tspan>

<tspan x="10" y="2682">+    },</tspan>

<tspan x="10" y="2698">+    "version": "2020.6.8"</tspan>

<tspan x="10" y="2714"> }</tspan>

<tspan x="10" y="2730">jslint-autofix - modified and saved file /tmp/npmTestPublished/node_modules/apidoc-lite/package.\</tspan>
<tspan x="10" y="2746">json</tspan>

<tspan x="10" y="2762">jslint - 65ms - /tmp/npmTestPublished/node_modules/apidoc-lite/package.json</tspan>

<tspan x="10" y="2778">--- /tmp/npmTestPublished/node_modules/apidoc-lite/test.js.autofix.old	2020-06-09 14:26:02.37898\</tspan>
<tspan x="10" y="2794">2211 +0000</tspan>

<tspan x="10" y="2810">+++ /tmp/npmTestPublished/node_modules/apidoc-lite/test.js	2020-06-09 14:26:02.378982211 +0000</tspan>

<tspan x="10" y="2826">@@ -3,12 +3,10 @@</tspan>

<tspan x="10" y="2842"> /* jslint utility2:true */</tspan>

<tspan x="10" y="2858"> /* istanbul ignore next */</tspan>

<tspan x="10" y="2874"> // run shared js-env code - init-local</tspan>

<tspan x="10" y="2890">-(function (globalThis) {</tspan>

<tspan x="10" y="2906">+(function () {</tspan>

<tspan x="10" y="2922">     "use strict";</tspan>

<tspan x="10" y="2938">     let consoleError;</tspan>

<tspan x="10" y="2954">     let local;</tspan>

<tspan x="10" y="2970">-    // init globalThis</tspan>

<tspan x="10" y="2986">-    globalThis.globalThis = globalThis.globalThis || globalThis;</tspan>

<tspan x="10" y="3002">     // init debugInline</tspan>

<tspan x="10" y="3018">     if (!globalThis.debugInline) {</tspan>

<tspan x="10" y="3034">         consoleError = console.error;</tspan>

<tspan x="10" y="3050">@@ -159,7 +157,7 @@</tspan>

<tspan x="10" y="3066">             throw err;</tspan>

<tspan x="10" y="3082">         });</tspan>

<tspan x="10" y="3098">     }</tspan>

<tspan x="10" y="3114">-}((typeof globalThis === "object" &amp;&amp; globalThis) || window));</tspan>

<tspan x="10" y="3130">+}());</tspan>

<tspan x="10" y="3146"> // assets.utility2.header.js - end</tspan>

<tspan x="10" y="3162"> </tspan>

<tspan x="10" y="3178"> </tspan>

<tspan x="10" y="3194">jslint-autofix - modified and saved file /tmp/npmTestPublished/node_modules/apidoc-lite/test.js</tspan>

<tspan x="10" y="3210">jslint - 155ms - /tmp/npmTestPublished/node_modules/apidoc-lite/test.js</tspan>

<tspan x="10" y="3226">http-server listening on port 56563</tspan>

<tspan x="10" y="3242">--- /tmp/npmTestPublished/node_modules/apidoc-lite/lib.apidoc.js.autofix.old	2020-06-09 14:26:02\</tspan>
<tspan x="10" y="3258">.610982184 +0000</tspan>

<tspan x="10" y="3274">+++ /tmp/npmTestPublished/node_modules/apidoc-lite/lib.apidoc.js	2020-06-09 14:26:02.610982184 +\</tspan>
<tspan x="10" y="3290">0000</tspan>

<tspan x="10" y="3306">@@ -13,12 +13,10 @@</tspan>

<tspan x="10" y="3322"> /* jslint utility2:true */</tspan>

<tspan x="10" y="3338"> /* istanbul ignore next */</tspan>

<tspan x="10" y="3354"> // run shared js-env code - init-local</tspan>

<tspan x="10" y="3370">-(function (globalThis) {</tspan>

<tspan x="10" y="3386">+(function () {</tspan>

<tspan x="10" y="3402">     "use strict";</tspan>

<tspan x="10" y="3418">     let consoleError;</tspan>

<tspan x="10" y="3434">     let local;</tspan>

<tspan x="10" y="3450">-    // init globalThis</tspan>

<tspan x="10" y="3466">-    globalThis.globalThis = globalThis.globalThis || globalThis;</tspan>

<tspan x="10" y="3482">     // init debugInline</tspan>

<tspan x="10" y="3498">     if (!globalThis.debugInline) {</tspan>

<tspan x="10" y="3514">         consoleError = console.error;</tspan>

<tspan x="10" y="3530">@@ -169,7 +167,7 @@</tspan>

<tspan x="10" y="3546">             throw err;</tspan>

<tspan x="10" y="3562">         });</tspan>

<tspan x="10" y="3578">     }</tspan>

<tspan x="10" y="3594">-}((typeof globalThis === "object" &amp;&amp; globalThis) || window));</tspan>

<tspan x="10" y="3610">+}());</tspan>

<tspan x="10" y="3626"> // assets.utility2.header.js - end</tspan>

<tspan x="10" y="3642"> </tspan>

<tspan x="10" y="3658"> </tspan>

<tspan x="10" y="3674">jslint-autofix - modified and saved file /tmp/npmTestPublished/node_modules/apidoc-lite/lib.apid\</tspan>
<tspan x="10" y="3690">oc.js</tspan>

<tspan x="10" y="3706">jslint - 399ms - /tmp/npmTestPublished/node_modules/apidoc-lite/lib.apidoc.js</tspan>

<tspan x="10" y="3722">testRunDefault - 361 ms - [node test-case 1 of 9 passed] - testCase_apidocCreate_default</tspan>

<tspan x="10" y="3738">testRunDefault - 380 ms - [node test-case 2 of 9 passed] - testCase_buildLib_default</tspan>

<tspan x="10" y="3754">testRunDefault - 390 ms - [node test-case 3 of 9 passed] - testCase_buildReadme_default</tspan>

<tspan x="10" y="3770">testRunDefault - 393 ms - [node test-case 4 of 9 passed] - testCase_buildTest_default</tspan>

<tspan x="10" y="3786">testRunDefault - 396 ms - [node test-case 5 of 9 passed] - testCase_moduleDirname_default</tspan>

<tspan x="10" y="3802">testRunDefault - 396 ms - [node test-case 6 of 9 passed] - testCase_nop_default</tspan>

<tspan x="10" y="3818">testRunDefault - 483 ms - [node test-case 7 of 9 passed] - testCase_buildApidoc_default</tspan>

<tspan x="10" y="3834">&gt; </tspan>

<tspan x="10" y="3850">DevTools listening on ws://127.0.0.1:38125/devtools/browser/020949b6-983c-4789-8c24-ad39b303c7ce</tspan>

<tspan x="10" y="3866">http-server listening on port 49290</tspan>

<tspan x="10" y="3882">[0609/142603.434430:ERROR:command_buffer_proxy_impl.cc(122)] ContextResult::kTransientFailure: F\</tspan>
<tspan x="10" y="3898">ailed to send GpuChannelMsg_CreateCommandBuffer.</tspan>

<tspan x="10" y="3914">[0609/142603.697709:INFO:CONSOLE(8)] "testRunDefault - 3 ms - [browser test-case 1 of 3 passed] \</tspan>
<tspan x="10" y="3930">- testCase_apidocCreate_default", source: http://127.0.0.1:56563/assets.example.js (8)</tspan>

<tspan x="10" y="3946">[0609/142603.706845:INFO:CONSOLE(8)] "testRunDefault - 13 ms - [browser test-case 2 of 3 passed]\</tspan>
<tspan x="10" y="3962"> - testCase_moduleDirname_default", source: http://127.0.0.1:56563/assets.example.js (8)</tspan>

<tspan x="10" y="3978">[0609/142603.709769:INFO:CONSOLE(8)] "testRunDefault - 16 ms - [browser test-case 3 of 3 passed]\</tspan>
<tspan x="10" y="3994"> - testCase_nop_default", source: http://127.0.0.1:56563/assets.example.js (8)</tspan>

<tspan x="10" y="4010">[0609/142603.789237:INFO:CONSOLE(8)] "domOnEventWindowOnloadTimeElapsed = 185", source: http://1\</tspan>
<tspan x="10" y="4026">27.0.0.1:56563/assets.example.js (8)</tspan>

<tspan x="10" y="4042">testRunDefault - 1298 ms - [node test-case 8 of 9 passed] - testCase_webpage_default</tspan>

<tspan x="10" y="4058">jslint - 4ms - /tmp/npmTestPublished/node_modules/apidoc-lite/tmp/build/app/assets.apidoc.html</tspan>

<tspan x="10" y="4074">jslint - 4ms - /tmp/npmTestPublished/node_modules/apidoc-lite/tmp/build/app/assets.example.html</tspan>

<tspan x="10" y="4090">jslint - 5ms - /tmp/npmTestPublished/node_modules/apidoc-lite/tmp/build/app/index.html</tspan>

<tspan x="10" y="4106">jslint - 6ms - /tmp/npmTestPublished/node_modules/apidoc-lite/tmp/build/app/assets.utility2.html</tspan>

<tspan x="10" y="4122">jslint - 6ms - /tmp/npmTestPublished/node_modules/apidoc-lite/tmp/build/app/assets.test.js</tspan>

<tspan x="10" y="4138">jslint - 6ms - /tmp/npmTestPublished/node_modules/apidoc-lite/tmp/build/app/assets.example.js</tspan>

<tspan x="10" y="4154">jslint - 7ms - /tmp/npmTestPublished/node_modules/apidoc-lite/tmp/build/app/assets.apidoc.js</tspan>

<tspan x="10" y="4170">testRunDefault - 5737 ms - [node test-case 9 of 9 passed] - testCase_buildApp_default</tspan>

<tspan x="10" y="4186">----------------|---------|---------|---------|---------|</tspan>

<tspan x="10" y="4202">File            | % Stmts | % Brchs | % Funcs | % Lines |</tspan>

<tspan x="10" y="4218">----------------|---------|---------|---------|---------|</tspan>

<tspan x="10" y="4234">All files       |   98.96 |   96.35 |   97.64 |   98.96 |</tspan>

<tspan x="10" y="4250">apidoc-lite/    |   98.96 |   96.35 |   97.64 |   98.96 |</tspan>

<tspan x="10" y="4266">  example.js    |     100 |     100 |     100 |     100 |</tspan>

<tspan x="10" y="4282">  lib.apidoc.js |   98.41 |   98.23 |   96.51 |   98.41 |</tspan>

<tspan x="10" y="4298">  test.js       |     100 |   84.51 |     100 |     100 |</tspan>

<tspan x="10" y="4314">----------------|---------|---------|---------|---------|</tspan>

<tspan x="10" y="4330"></tspan>

<tspan x="10" y="4346">wrote file - coverage-report - /tmp/npmTestPublished/node_modules/apidoc-lite/tmp/build/coverage\</tspan>
<tspan x="10" y="4362">.html/coverage.txt</tspan>

<tspan x="10" y="4378">wrote file - coverage-report - /tmp/npmTestPublished/node_modules/apidoc-lite/tmp/build/coverage\</tspan>
<tspan x="10" y="4394">.html/index.html</tspan>

<tspan x="10" y="4410">wrote file - coverage-report - /tmp/npmTestPublished/node_modules/apidoc-lite/tmp/build/coverage\</tspan>
<tspan x="10" y="4426">.html/apidoc-lite/index.html</tspan>

<tspan x="10" y="4442">wrote file - coverage-report - /tmp/npmTestPublished/node_modules/apidoc-lite/tmp/build/coverage\</tspan>
<tspan x="10" y="4458">.html/apidoc-lite/example.js.html</tspan>

<tspan x="10" y="4474">wrote file - coverage-report - /tmp/npmTestPublished/node_modules/apidoc-lite/tmp/build/coverage\</tspan>
<tspan x="10" y="4490">.html/apidoc-lite/lib.apidoc.js.html</tspan>

<tspan x="10" y="4506">wrote file - coverage-report - /tmp/npmTestPublished/node_modules/apidoc-lite/tmp/build/coverage\</tspan>
<tspan x="10" y="4522">.html/apidoc-lite/test.js.html</tspan>

<tspan x="10" y="4538">wrote file - coverage-report - /tmp/npmTestPublished/node_modules/apidoc-lite/tmp/build/coverage\</tspan>
<tspan x="10" y="4554">.html/coverage.all.html</tspan>

<tspan x="10" y="4570">wrote file - coverage-report - /tmp/npmTestPublished/node_modules/apidoc-lite/tmp/build/coverage\</tspan>
<tspan x="10" y="4586">.html/coverage.json</tspan>

<tspan x="10" y="4602">wrote file - coverage-report - /tmp/npmTestPublished/node_modules/apidoc-lite/tmp/build/coverage\</tspan>
<tspan x="10" y="4618">.html/coverage.include.json</tspan>

<tspan x="10" y="4634">wrote file - coverage-report - /tmp/npmTestPublished/node_modules/apidoc-lite/tmp/build/coverage\</tspan>
<tspan x="10" y="4650">.badge.svg</tspan>

<tspan x="10" y="4666">istanbul - created coverage file /tmp/npmTestPublished/node_modules/apidoc-lite/tmp/build/covera\</tspan>
<tspan x="10" y="4682">ge.html/index.html</tspan>

<tspan x="10" y="4698"></tspan>

<tspan x="10" y="4714">-------------------------------------------------------</tspan>

<tspan x="10" y="4730">| test-report - npmTestPublished - browser - / - Mozilla/5.0 (X11; Linux x86_64) AppleWebKit/537\</tspan>
<tspan x="10" y="4746">.36 (KHTML, like Gecko) HeadlessChrome/83.0.4103.97 Safari/537.36 - 2020-06-09T14:26:03.649Z</tspan>

<tspan x="10" y="4762">|      19 ms            0 failed        3 passed      |</tspan>

<tspan x="10" y="4778">-------------------------------------------------------</tspan>

<tspan x="10" y="4794">| test-report - npmTestPublished - node - linux v14.4.0 - 2020-06-09T14:26:01.998Z</tspan>

<tspan x="10" y="4810">|    5738 ms            0 failed        9 passed      |</tspan>

<tspan x="10" y="4826">-------------------------------------------------------</tspan>

<tspan x="10" y="4842"></tspan>

<tspan x="10" y="4858">wrote file - test-report - /tmp/npmTestPublished/node_modules/apidoc-lite/tmp/build/test-report.\</tspan>
<tspan x="10" y="4874">html</tspan>

<tspan x="10" y="4890">wrote file - test-report - /tmp/npmTestPublished/node_modules/apidoc-lite/tmp/build/build.badge.\</tspan>
<tspan x="10" y="4906">svg</tspan>

<tspan x="10" y="4922">wrote file - test-report - /tmp/npmTestPublished/node_modules/apidoc-lite/tmp/build/test-report.\</tspan>
<tspan x="10" y="4938">badge.svg</tspan>

<tspan x="10" y="4954"></tspan>

<tspan x="10" y="4970">npmTestPublished - 0 failed tests</tspan>

<tspan x="10" y="4986"></tspan>

<tspan x="10" y="5002"></tspan>

<tspan x="10" y="5018">\x1b[35m[MODE_BUILD=npmTestPublished]\x1b[0m - 2020-06-09T14:26:08.537Z - EXIT_CODE - 0</tspan>

</text>
</svg>
