<svg height="2334" width="720" xmlns="http://www.w3.org/2000/svg">
<rect height="2334" fill="#555" width="720"></rect>
<text fill="#7f7" font-family="Courier New" font-size="12" xml:space="preserve">
<tspan x="10" y="26">2020-06-07 01:06:41 -0500</tspan>

<tspan x="10" y="42">unhandledRejections</tspan>

<tspan x="10" y="58"></tspan>

<tspan x="10" y="74">2020-06-07 00:30:33 -0500</tspan>

<tspan x="10" y="90">- remove eagerly requiring nodejs-builtins</tspan>

<tspan x="10" y="106"></tspan>

<tspan x="10" y="122">2020-06-06 22:17:38 -0500</tspan>

<tspan x="10" y="138">- minimize dependency to local</tspan>

<tspan x="10" y="154">- remove eagerly requiring nodejs-builtins except fs</tspan>

<tspan x="10" y="170"></tspan>

<tspan x="10" y="186">2020-06-06 21:23:01 -0500</tspan>

<tspan x="10" y="202">- remove eagerly requiring builtins:</tspan>

<tspan x="10" y="218">    url</tspan>

<tspan x="10" y="234"></tspan>

<tspan x="10" y="250">2020-06-06 20:58:04 -0500</tspan>

<tspan x="10" y="266">- remove eagerly requiring builtins:</tspan>

<tspan x="10" y="282">    path</tspan>

<tspan x="10" y="298"></tspan>

<tspan x="10" y="314">2020-06-06 20:46:27 -0500</tspan>

<tspan x="10" y="330">- remove eagerly requiring builtins:</tspan>

<tspan x="10" y="346"></tspan>

<tspan x="10" y="362">2020-06-06 20:35:21 -0500</tspan>

<tspan x="10" y="378">- remove eagerly requiring builtins:</tspan>

<tspan x="10" y="394"></tspan>

<tspan x="10" y="410">2020-06-06 20:31:57 -0500</tspan>

<tspan x="10" y="426">- remove eagerly requiring builtins:</tspan>

<tspan x="10" y="442"></tspan>

<tspan x="10" y="458">2020-06-06 20:23:55 -0500</tspan>

<tspan x="10" y="474">- remove eagerly requiring builtins:</tspan>

<tspan x="10" y="490">    buffer,</tspan>

<tspan x="10" y="506">    dgam,</tspan>

<tspan x="10" y="522">    dns,</tspan>

<tspan x="10" y="538">    vm,</tspan>

<tspan x="10" y="554">    tls,</tspan>

<tspan x="10" y="570">    tty,</tspan>

<tspan x="10" y="586">    zlib</tspan>

<tspan x="10" y="602"></tspan>

<tspan x="10" y="618">2020-06-06 20:17:40 -0500</tspan>

<tspan x="10" y="634">- remove eagerly requiring builtins:</tspan>

<tspan x="10" y="650">    buffer,</tspan>

<tspan x="10" y="666">    dgam,</tspan>

<tspan x="10" y="682">    dns,</tspan>

<tspan x="10" y="698">    vm,</tspan>

<tspan x="10" y="714">    tls,</tspan>

<tspan x="10" y="730">    tty,</tspan>

<tspan x="10" y="746">    zlib</tspan>

<tspan x="10" y="762"></tspan>

<tspan x="10" y="778">2020-06-06 20:11:09 -0500</tspan>

<tspan x="10" y="794">- remove eagerly requiring builtins:</tspan>

<tspan x="10" y="810">    buffer,</tspan>

<tspan x="10" y="826">    dgam,</tspan>

<tspan x="10" y="842">    dns,</tspan>

<tspan x="10" y="858">    vm,</tspan>

<tspan x="10" y="874">    tls,</tspan>

<tspan x="10" y="890">    tty,</tspan>

<tspan x="10" y="906">    zlib</tspan>

<tspan x="10" y="922"></tspan>

<tspan x="10" y="938">2020-06-06 22:50:01 +0000</tspan>

<tspan x="10" y="954">travis-ci.com</tspan>

<tspan x="10" y="970"></tspan>

<tspan x="10" y="986">2020-06-06 17:47:19 -0500</tspan>

<tspan x="10" y="1002">update</tspan>

<tspan x="10" y="1018"></tspan>

<tspan x="10" y="1034">2020-06-06 17:46:57 -0500</tspan>

<tspan x="10" y="1050">update</tspan>

<tspan x="10" y="1066"></tspan>

<tspan x="10" y="1082">2020-03-17 02:10:50 -0500</tspan>

<tspan x="10" y="1098">[build clean]</tspan>

<tspan x="10" y="1114"></tspan>

<tspan x="10" y="1130">2020-03-17 01:56:49 -0500</tspan>

<tspan x="10" y="1146">[npm publish] - npm publish 2020.3.16</tspan>

<tspan x="10" y="1162">- jslint - remove ternary-operator/newline comment preceding bra</tspan>

<tspan x="10" y="1178">- update build</tspan>

<tspan x="10" y="1194"></tspan>

<tspan x="10" y="1210">2019-08-17 17:15:31 +0000</tspan>

<tspan x="10" y="1226">[npm publish] - npm publish 2019.8.16</tspan>

<tspan x="10" y="1242">- update build</tspan>

<tspan x="10" y="1258"></tspan>

<tspan x="10" y="1274">2018-09-30 02:36:28 +0700</tspan>

<tspan x="10" y="1290">[npm publish] - npm publish 2018.9.29</tspan>

<tspan x="10" y="1306">- migrate to new jslint (2018-09)</tspan>

<tspan x="10" y="1322">- migrate from modeJs -&gt; isBrowser</tspan>

<tspan x="10" y="1338">- update build</tspan>

<tspan x="10" y="1354"></tspan>

<tspan x="10" y="1370">2018-08-08 22:02:05 +0700</tspan>

<tspan x="10" y="1386">[npm publish] - npm publish 2018.5.25</tspan>

<tspan x="10" y="1402">- migrate from modeJs -&gt; isBrowser</tspan>

<tspan x="10" y="1418">- update build</tspan>

<tspan x="10" y="1434"></tspan>

<tspan x="10" y="1450">2018-05-02 19:16:05 +0800</tspan>

<tspan x="10" y="1466">[npm publish] - npm publish 2018.5.2</tspan>

<tspan x="10" y="1482">- update build</tspan>

<tspan x="10" y="1498"></tspan>

<tspan x="10" y="1514">2018-04-13 13:28:20 +0800</tspan>

<tspan x="10" y="1530">[npm publish] - npm publish v2017.4.12</tspan>

<tspan x="10" y="1546">- improve error-handling for misbehaving property-accessors</tspan>

<tspan x="10" y="1562">- fix build-ci for nodejs v9.x</tspan>

<tspan x="10" y="1578"></tspan>

<tspan x="10" y="1594">2018-04-03 16:29:35 +0800</tspan>

<tspan x="10" y="1610">[npm publish] - npm publish v2017.4.2</tspan>

<tspan x="10" y="1626">- replace option htmlBr with markdownToHtml in function templateRender</tspan>

<tspan x="10" y="1642">- update function apidocCreate with extra param options.whitelistDict</tspan>

<tspan x="10" y="1658"></tspan>

<tspan x="10" y="1674">2018-01-14 22:38:51 +0700</tspan>

<tspan x="10" y="1690">[npm publish] - npm publish 2017.1.13</tspan>

<tspan x="10" y="1706">- update build</tspan>

<tspan x="10" y="1722"></tspan>

<tspan x="10" y="1738">2017-10-24 22:25:24 +0800</tspan>

<tspan x="10" y="1754">[npm publish] - npm publish 2017.10.23</tspan>

<tspan x="10" y="1770">- fix assert-module bug</tspan>

<tspan x="10" y="1786">- fix test-coverage</tspan>

<tspan x="10" y="1802"></tspan>

<tspan x="10" y="1818">2017-09-13 17:34:47 +0700</tspan>

<tspan x="10" y="1834">[npm publish] - npm publish 2017.9.12</tspan>

<tspan x="10" y="1850">- add cli-help doc to README.md</tspan>

<tspan x="10" y="1866"></tspan>

<tspan x="10" y="1882">2017-05-31 16:32:09 +0800</tspan>

<tspan x="10" y="1898">[npm publish] - npm publish 2017.5.30</tspan>

<tspan x="10" y="1914">- fix 'use strict' bug in firefox and safari</tspan>

<tspan x="10" y="1930">- revamp README.md</tspan>

<tspan x="10" y="1946"></tspan>

<tspan x="10" y="1962">2017-04-23 14:15:27 +0800</tspan>

<tspan x="10" y="1978">[npm publish] - npm publish 2017.4.22</tspan>

<tspan x="10" y="1994">- limit exampleList to 256 examples to handle edge-cases with many example-files like lodash</tspan>

<tspan x="10" y="2010">- generalize function apidocCreate to handle more real-world npm-modules</tspan>

<tspan x="10" y="2026">- try to document all .js files in first 3-levels of directories using param libFileList</tspan>

<tspan x="10" y="2042">- use breadth-first for files to add to param libFileList in function apidocCreate</tspan>

<tspan x="10" y="2058"></tspan>

<tspan x="10" y="2074">2017-03-17 20:57:12 +0800</tspan>

<tspan x="10" y="2090">[npm publish] - npm publish 2017.3.16</tspan>

<tspan x="10" y="2106">- revert npm_package_nameAlias back to npm_package_name</tspan>

<tspan x="10" y="2122"></tspan>

<tspan x="10" y="2138">2017-03-10 20:24:53 +0800</tspan>

<tspan x="10" y="2154">- npm publish 2017.3.9</tspan>

<tspan x="10" y="2170">- add ability to create markdown documentation</tspan>

<tspan x="10" y="2186">- auto-document dir ./lib/</tspan>

<tspan x="10" y="2202">- increase auto-coverage of examples</tspan>

<tspan x="10" y="2218"></tspan>

<tspan x="10" y="2234">2017-03-03 04:18:06 +0800</tspan>

<tspan x="10" y="2250">- npm publish 2017.2.27</tspan>

<tspan x="10" y="2266">- successful travis-ci build</tspan>

<tspan x="10" y="2282"></tspan>

<tspan x="10" y="2298">2014-03-26 02:31:50 +0700</tspan>

<tspan x="10" y="2314">add blank README.md</tspan>

</text>
</svg>
