<svg height="4206" width="720" xmlns="http://www.w3.org/2000/svg">
<rect height="4206" fill="#555" width="720"></rect>
<text fill="#7f7" font-family="Courier New" font-size="12" xml:space="preserve">
<tspan x="10" y="26"></tspan>

<tspan x="10" y="42">\x1b[35m[MODE_BUILD=npmTestPublished]\x1b[0m - 2020-06-09T06:48:55.472Z - npm-testing /tmp/npmTe\</tspan>
<tspan x="10" y="58">stPublished/node_modules/apidoc-lite</tspan>

<tspan x="10" y="74"></tspan>

<tspan x="10" y="90"></tspan>

<tspan x="10" y="106">istanbul - covering $ /home/travis/.nvm/versions/node/v14.4.0/bin/node /tmp/npmTestPublished/nod\</tspan>
<tspan x="10" y="122">e_modules/apidoc-lite/test.js</tspan>

<tspan x="10" y="138">&gt; jslint - 4ms - /tmp/npmTestPublished/node_modules/apidoc-lite/README.md</tspan>

<tspan x="10" y="154">jslint - 12ms - /tmp/npmTestPublished/node_modules/apidoc-lite/npm_scripts.sh</tspan>

<tspan x="10" y="170">--- /tmp/npmTestPublished/node_modules/apidoc-lite/package.json.autofix.old	2020-06-09 06:48:55.\</tspan>
<tspan x="10" y="186">878432475 +0000</tspan>

<tspan x="10" y="202">+++ /tmp/npmTestPublished/node_modules/apidoc-lite/package.json	2020-06-09 06:48:55.878432475 +0\</tspan>
<tspan x="10" y="218">000</tspan>

<tspan x="10" y="234">@@ -1,77 +1,77 @@</tspan>

<tspan x="10" y="250"> {</tspan>

<tspan x="10" y="266">-  "_from": "apidoc-lite",</tspan>

<tspan x="10" y="282">-  "_id": "apidoc-lite@2020.6.8",</tspan>

<tspan x="10" y="298">-  "_inBundle": false,</tspan>

<tspan x="10" y="314">-  "_integrity": "sha512-KIXsJuIxCwXiezruDLgHE0ZRe0Q66OQEmQyIuQzJ+vd125JmI7nDxkQtjEUsic9eENj0OJg\</tspan>
<tspan x="10" y="330">f3Udu70qruNUECQ==",</tspan>

<tspan x="10" y="346">-  "_location": "/apidoc-lite",</tspan>

<tspan x="10" y="362">-  "_phantomChildren": {},</tspan>

<tspan x="10" y="378">-  "_requested": {</tspan>

<tspan x="10" y="394">-    "type": "tag",</tspan>

<tspan x="10" y="410">-    "registry": true,</tspan>

<tspan x="10" y="426">-    "raw": "apidoc-lite",</tspan>

<tspan x="10" y="442">+    "_from": "apidoc-lite",</tspan>

<tspan x="10" y="458">+    "_id": "apidoc-lite@2020.6.8",</tspan>

<tspan x="10" y="474">+    "_inBundle": false,</tspan>

<tspan x="10" y="490">+    "_integrity": "sha512-KIXsJuIxCwXiezruDLgHE0ZRe0Q66OQEmQyIuQzJ+vd125JmI7nDxkQtjEUsic9eENj0O\</tspan>
<tspan x="10" y="506">Jgf3Udu70qruNUECQ==",</tspan>

<tspan x="10" y="522">+    "_location": "/apidoc-lite",</tspan>

<tspan x="10" y="538">+    "_phantomChildren": {},</tspan>

<tspan x="10" y="554">+    "_requested": {</tspan>

<tspan x="10" y="570">+        "escapedName": "apidoc-lite",</tspan>

<tspan x="10" y="586">+        "fetchSpec": "latest",</tspan>

<tspan x="10" y="602">+        "name": "apidoc-lite",</tspan>

<tspan x="10" y="618">+        "raw": "apidoc-lite",</tspan>

<tspan x="10" y="634">+        "rawSpec": "",</tspan>

<tspan x="10" y="650">+        "registry": true,</tspan>

<tspan x="10" y="666">+        "saveSpec": null,</tspan>

<tspan x="10" y="682">+        "type": "tag"</tspan>

<tspan x="10" y="698">+    },</tspan>

<tspan x="10" y="714">+    "_requiredBy_": [</tspan>

<tspan x="10" y="730">+        "#USER",</tspan>

<tspan x="10" y="746">+        "/"</tspan>

<tspan x="10" y="762">+    ],</tspan>

<tspan x="10" y="778">+    "_resolved": "https://registry.npmjs.org/apidoc-lite/-/apidoc-lite-2020.6.8.tgz",</tspan>

<tspan x="10" y="794">+    "_shasum": "1fee1e42b5ecd70f18bc9f65503deec79fe4d750",</tspan>

<tspan x="10" y="810">+    "_spec": "apidoc-lite",</tspan>

<tspan x="10" y="826">+    "_where": "/tmp/npmTestPublished",</tspan>

<tspan x="10" y="842">+    "author": {</tspan>

<tspan x="10" y="858">+        "email": "kaizhu256@gmail.com",</tspan>

<tspan x="10" y="874">+        "name": "kai zhu"</tspan>

<tspan x="10" y="890">+    },</tspan>

<tspan x="10" y="906">+    "bin": {</tspan>

<tspan x="10" y="922">+        "apidoc-lite": "lib.apidoc.js"</tspan>

<tspan x="10" y="938">+    },</tspan>

<tspan x="10" y="954">+    "bugs": {</tspan>

<tspan x="10" y="970">+        "url": "https://github.com/kaizhu256/node-apidoc-lite/issues"</tspan>

<tspan x="10" y="986">+    },</tspan>

<tspan x="10" y="1002">+    "bundleDependencies": false,</tspan>

<tspan x="10" y="1018">+    "deprecated": false,</tspan>

<tspan x="10" y="1034">+    "description": "this zero-dependency package will auto-generate documentation for your npm-\</tspan>
<tspan x="10" y="1050">package with zero-config",</tspan>

<tspan x="10" y="1066">+    "devDependencies": {</tspan>

<tspan x="10" y="1082">+        "utility2": "github:kaizhu256/node-utility2#alpha"</tspan>

<tspan x="10" y="1098">+    },</tspan>

<tspan x="10" y="1114">+    "engines": {</tspan>

<tspan x="10" y="1130">+        "node": "&gt;=12.0"</tspan>

<tspan x="10" y="1146">+    },</tspan>

<tspan x="10" y="1162">+    "fileCount": 8,</tspan>

<tspan x="10" y="1178">+    "homepage": "https://github.com/kaizhu256/node-apidoc-lite",</tspan>

<tspan x="10" y="1194">+    "keywords": [</tspan>

<tspan x="10" y="1210">+        "apidoc",</tspan>

<tspan x="10" y="1226">+        "documentation-generator",</tspan>

<tspan x="10" y="1242">+        "doxygen"</tspan>

<tspan x="10" y="1258">+    ],</tspan>

<tspan x="10" y="1274">+    "license": "MIT",</tspan>

<tspan x="10" y="1290">+    "main": "lib.apidoc.js",</tspan>

<tspan x="10" y="1306">     "name": "apidoc-lite",</tspan>

<tspan x="10" y="1322">-    "escapedName": "apidoc-lite",</tspan>

<tspan x="10" y="1338">-    "rawSpec": "",</tspan>

<tspan x="10" y="1354">-    "saveSpec": null,</tspan>

<tspan x="10" y="1370">-    "fetchSpec": "latest"</tspan>

<tspan x="10" y="1386">-  },</tspan>

<tspan x="10" y="1402">-  "_requiredBy_": [</tspan>

<tspan x="10" y="1418">-    "#USER",</tspan>

<tspan x="10" y="1434">-    "/"</tspan>

<tspan x="10" y="1450">-  ],</tspan>

<tspan x="10" y="1466">-  "_resolved": "https://registry.npmjs.org/apidoc-lite/-/apidoc-lite-2020.6.8.tgz",</tspan>

<tspan x="10" y="1482">-  "_shasum": "1fee1e42b5ecd70f18bc9f65503deec79fe4d750",</tspan>

<tspan x="10" y="1498">-  "_spec": "apidoc-lite",</tspan>

<tspan x="10" y="1514">-  "_where": "/tmp/npmTestPublished",</tspan>

<tspan x="10" y="1530">-  "author": {</tspan>

<tspan x="10" y="1546">-    "name": "kai zhu",</tspan>

<tspan x="10" y="1562">-    "email": "kaizhu256@gmail.com"</tspan>

<tspan x="10" y="1578">-  },</tspan>

<tspan x="10" y="1594">-  "bin": {</tspan>

<tspan x="10" y="1610">-    "apidoc-lite": "lib.apidoc.js"</tspan>

<tspan x="10" y="1626">-  },</tspan>

<tspan x="10" y="1642">-  "bugs": {</tspan>

<tspan x="10" y="1658">-    "url": "https://github.com/kaizhu256/node-apidoc-lite/issues"</tspan>

<tspan x="10" y="1674">-  },</tspan>

<tspan x="10" y="1690">-  "bundleDependencies": false,</tspan>

<tspan x="10" y="1706">-  "deprecated": false,</tspan>

<tspan x="10" y="1722">-  "description": "this zero-dependency package will auto-generate documentation for your npm-pa\</tspan>
<tspan x="10" y="1738">ckage with zero-config",</tspan>

<tspan x="10" y="1754">-  "devDependencies": {</tspan>

<tspan x="10" y="1770">-    "utility2": "github:kaizhu256/node-utility2#alpha"</tspan>

<tspan x="10" y="1786">-  },</tspan>

<tspan x="10" y="1802">-  "engines": {</tspan>

<tspan x="10" y="1818">-    "node": "&gt;=12.0"</tspan>

<tspan x="10" y="1834">-  },</tspan>

<tspan x="10" y="1850">-  "fileCount": 8,</tspan>

<tspan x="10" y="1866">-  "homepage": "https://github.com/kaizhu256/node-apidoc-lite",</tspan>

<tspan x="10" y="1882">-  "keywords": [</tspan>

<tspan x="10" y="1898">-    "apidoc",</tspan>

<tspan x="10" y="1914">-    "documentation-generator",</tspan>

<tspan x="10" y="1930">-    "doxygen"</tspan>

<tspan x="10" y="1946">-  ],</tspan>

<tspan x="10" y="1962">-  "license": "MIT",</tspan>

<tspan x="10" y="1978">-  "main": "lib.apidoc.js",</tspan>

<tspan x="10" y="1994">-  "name": "apidoc-lite",</tspan>

<tspan x="10" y="2010">-  "nameAliasPublish": "npmdoc",</tspan>

<tspan x="10" y="2026">-  "nameLib": "apidoc",</tspan>

<tspan x="10" y="2042">-  "nameOriginal": "apidoc-lite",</tspan>

<tspan x="10" y="2058">-  "os": [</tspan>

<tspan x="10" y="2074">-    "darwin",</tspan>

<tspan x="10" y="2090">-    "linux"</tspan>

<tspan x="10" y="2106">-  ],</tspan>

<tspan x="10" y="2122">-  "repository": {</tspan>

<tspan x="10" y="2138">-    "type": "git",</tspan>

<tspan x="10" y="2154">-    "url": "git+https://github.com/kaizhu256/node-apidoc-lite.git"</tspan>

<tspan x="10" y="2170">-  },</tspan>

<tspan x="10" y="2186">-  "scripts": {</tspan>

<tspan x="10" y="2202">-    "build-ci": "./npm_scripts.sh",</tspan>

<tspan x="10" y="2218">-    "env": "env",</tspan>

<tspan x="10" y="2234">-    "eval": "./npm_scripts.sh",</tspan>

<tspan x="10" y="2250">-    "heroku-postbuild": "./npm_scripts.sh",</tspan>

<tspan x="10" y="2266">-    "postinstall": "./npm_scripts.sh",</tspan>

<tspan x="10" y="2282">-    "start": "./npm_scripts.sh",</tspan>

<tspan x="10" y="2298">-    "test": "./npm_scripts.sh",</tspan>

<tspan x="10" y="2314">-    "utility2": "./npm_scripts.sh"</tspan>

<tspan x="10" y="2330">-  },</tspan>

<tspan x="10" y="2346">-  "version": "2020.6.8"</tspan>

<tspan x="10" y="2362">+    "nameAliasPublish": "npmdoc",</tspan>

<tspan x="10" y="2378">+    "nameLib": "apidoc",</tspan>

<tspan x="10" y="2394">+    "nameOriginal": "apidoc-lite",</tspan>

<tspan x="10" y="2410">+    "os": [</tspan>

<tspan x="10" y="2426">+        "darwin",</tspan>

<tspan x="10" y="2442">+        "linux"</tspan>

<tspan x="10" y="2458">+    ],</tspan>

<tspan x="10" y="2474">+    "repository": {</tspan>

<tspan x="10" y="2490">+        "type": "git",</tspan>

<tspan x="10" y="2506">+        "url": "git+https://github.com/kaizhu256/node-apidoc-lite.git"</tspan>

<tspan x="10" y="2522">+    },</tspan>

<tspan x="10" y="2538">+    "scripts": {</tspan>

<tspan x="10" y="2554">+        "build-ci": "./npm_scripts.sh",</tspan>

<tspan x="10" y="2570">+        "env": "env",</tspan>

<tspan x="10" y="2586">+        "eval": "./npm_scripts.sh",</tspan>

<tspan x="10" y="2602">+        "heroku-postbuild": "./npm_scripts.sh",</tspan>

<tspan x="10" y="2618">+        "postinstall": "./npm_scripts.sh",</tspan>

<tspan x="10" y="2634">+        "start": "./npm_scripts.sh",</tspan>

<tspan x="10" y="2650">+        "test": "./npm_scripts.sh",</tspan>

<tspan x="10" y="2666">+        "utility2": "./npm_scripts.sh"</tspan>

<tspan x="10" y="2682">+    },</tspan>

<tspan x="10" y="2698">+    "version": "2020.6.8"</tspan>

<tspan x="10" y="2714"> }</tspan>

<tspan x="10" y="2730">jslint-autofix - modified and saved file /tmp/npmTestPublished/node_modules/apidoc-lite/package.\</tspan>
<tspan x="10" y="2746">json</tspan>

<tspan x="10" y="2762">jslint - 41ms - /tmp/npmTestPublished/node_modules/apidoc-lite/package.json</tspan>

<tspan x="10" y="2778">jslint - 122ms - /tmp/npmTestPublished/node_modules/apidoc-lite/test.js</tspan>

<tspan x="10" y="2794">jslint - 356ms - /tmp/npmTestPublished/node_modules/apidoc-lite/lib.apidoc.js</tspan>

<tspan x="10" y="2810">http-server listening on port 35839</tspan>

<tspan x="10" y="2826">testRunDefault - 371 ms - [node test-case 1 of 9 passed] - testCase_apidocCreate_default</tspan>

<tspan x="10" y="2842">testRunDefault - 392 ms - [node test-case 2 of 9 passed] - testCase_buildLib_default</tspan>

<tspan x="10" y="2858">testRunDefault - 402 ms - [node test-case 3 of 9 passed] - testCase_buildReadme_default</tspan>

<tspan x="10" y="2874">testRunDefault - 403 ms - [node test-case 4 of 9 passed] - testCase_buildTest_default</tspan>

<tspan x="10" y="2890">testRunDefault - 407 ms - [node test-case 5 of 9 passed] - testCase_moduleDirname_default</tspan>

<tspan x="10" y="2906">testRunDefault - 408 ms - [node test-case 6 of 9 passed] - testCase_nop_default</tspan>

<tspan x="10" y="2922">testRunDefault - 495 ms - [node test-case 7 of 9 passed] - testCase_buildApidoc_default</tspan>

<tspan x="10" y="2938">&gt; http-server listening on port 60147</tspan>

<tspan x="10" y="2954"></tspan>

<tspan x="10" y="2970">DevTools listening on ws://127.0.0.1:46757/devtools/browser/dca2a1af-68d9-4689-bb1e-7f6563e53268</tspan>

<tspan x="10" y="2986">[0609/064857.162458:ERROR:command_buffer_proxy_impl.cc(122)] ContextResult::kTransientFailure: F\</tspan>
<tspan x="10" y="3002">ailed to send GpuChannelMsg_CreateCommandBuffer.</tspan>

<tspan x="10" y="3018">[0609/064857.162585:WARNING:ipc_message_attachment_set.cc(49)] MessageAttachmentSet destroyed wi\</tspan>
<tspan x="10" y="3034">th unconsumed attachments: 0/1</tspan>

<tspan x="10" y="3050">[0609/064857.162257:WARNING:ipc_message_attachment_set.cc(49)] MessageAttachmentSet destroyed wi\</tspan>
<tspan x="10" y="3066">th unconsumed attachments: 0/1</tspan>

<tspan x="10" y="3082">[0609/064857.415398:INFO:CONSOLE(8)] "testRunDefault - 4 ms - [browser test-case 1 of 3 passed] \</tspan>
<tspan x="10" y="3098">- testCase_apidocCreate_default", source: http://127.0.0.1:35839/assets.example.js (8)</tspan>

<tspan x="10" y="3114">[0609/064857.424880:INFO:CONSOLE(8)] "testRunDefault - 14 ms - [browser test-case 2 of 3 passed]\</tspan>
<tspan x="10" y="3130"> - testCase_moduleDirname_default", source: http://127.0.0.1:35839/assets.example.js (8)</tspan>

<tspan x="10" y="3146">[0609/064857.430661:INFO:CONSOLE(8)] "testRunDefault - 18 ms - [browser test-case 3 of 3 passed]\</tspan>
<tspan x="10" y="3162"> - testCase_nop_default", source: http://127.0.0.1:35839/assets.example.js (8)</tspan>

<tspan x="10" y="3178">[0609/064857.505276:INFO:CONSOLE(8)] "domOnEventWindowOnloadTimeElapsed = 152", source: http://1\</tspan>
<tspan x="10" y="3194">27.0.0.1:35839/assets.example.js (8)</tspan>

<tspan x="10" y="3210">testRunDefault - 1388 ms - [node test-case 8 of 9 passed] - testCase_webpage_default</tspan>

<tspan x="10" y="3226">jslint - 4ms - /tmp/npmTestPublished/node_modules/apidoc-lite/tmp/build/app/assets.apidoc.html</tspan>

<tspan x="10" y="3242">jslint - 5ms - /tmp/npmTestPublished/node_modules/apidoc-lite/tmp/build/app/assets.example.html</tspan>

<tspan x="10" y="3258">jslint - 5ms - /tmp/npmTestPublished/node_modules/apidoc-lite/tmp/build/app/index.html</tspan>

<tspan x="10" y="3274">jslint - 6ms - /tmp/npmTestPublished/node_modules/apidoc-lite/tmp/build/app/assets.utility2.html</tspan>

<tspan x="10" y="3290">jslint - 7ms - /tmp/npmTestPublished/node_modules/apidoc-lite/tmp/build/app/assets.test.js</tspan>

<tspan x="10" y="3306">jslint - 8ms - /tmp/npmTestPublished/node_modules/apidoc-lite/tmp/build/app/assets.example.js</tspan>

<tspan x="10" y="3322">jslint - 9ms - /tmp/npmTestPublished/node_modules/apidoc-lite/tmp/build/app/assets.apidoc.js</tspan>

<tspan x="10" y="3338">testRunDefault - 5741 ms - [node test-case 9 of 9 passed] - testCase_buildApp_default</tspan>

<tspan x="10" y="3354">----------------|---------|---------|---------|---------|</tspan>

<tspan x="10" y="3370">File            | % Stmts | % Brchs | % Funcs | % Lines |</tspan>

<tspan x="10" y="3386">----------------|---------|---------|---------|---------|</tspan>

<tspan x="10" y="3402">All files       |   98.96 |   98.84 |   97.64 |   98.96 |</tspan>

<tspan x="10" y="3418">apidoc-lite/    |   98.96 |   98.84 |   97.64 |   98.96 |</tspan>

<tspan x="10" y="3434">  example.js    |     100 |     100 |     100 |     100 |</tspan>

<tspan x="10" y="3450">  lib.apidoc.js |   98.41 |   98.23 |   96.51 |   98.41 |</tspan>

<tspan x="10" y="3466">  test.js       |     100 |     100 |     100 |     100 |</tspan>

<tspan x="10" y="3482">----------------|---------|---------|---------|---------|</tspan>

<tspan x="10" y="3498"></tspan>

<tspan x="10" y="3514">wrote file - coverage-report - /tmp/npmTestPublished/node_modules/apidoc-lite/tmp/build/coverage\</tspan>
<tspan x="10" y="3530">.html/coverage.txt</tspan>

<tspan x="10" y="3546">wrote file - coverage-report - /tmp/npmTestPublished/node_modules/apidoc-lite/tmp/build/coverage\</tspan>
<tspan x="10" y="3562">.html/index.html</tspan>

<tspan x="10" y="3578">wrote file - coverage-report - /tmp/npmTestPublished/node_modules/apidoc-lite/tmp/build/coverage\</tspan>
<tspan x="10" y="3594">.html/apidoc-lite/index.html</tspan>

<tspan x="10" y="3610">wrote file - coverage-report - /tmp/npmTestPublished/node_modules/apidoc-lite/tmp/build/coverage\</tspan>
<tspan x="10" y="3626">.html/apidoc-lite/example.js.html</tspan>

<tspan x="10" y="3642">wrote file - coverage-report - /tmp/npmTestPublished/node_modules/apidoc-lite/tmp/build/coverage\</tspan>
<tspan x="10" y="3658">.html/apidoc-lite/lib.apidoc.js.html</tspan>

<tspan x="10" y="3674">wrote file - coverage-report - /tmp/npmTestPublished/node_modules/apidoc-lite/tmp/build/coverage\</tspan>
<tspan x="10" y="3690">.html/apidoc-lite/test.js.html</tspan>

<tspan x="10" y="3706">wrote file - coverage-report - /tmp/npmTestPublished/node_modules/apidoc-lite/tmp/build/coverage\</tspan>
<tspan x="10" y="3722">.html/coverage.all.html</tspan>

<tspan x="10" y="3738">wrote file - coverage-report - /tmp/npmTestPublished/node_modules/apidoc-lite/tmp/build/coverage\</tspan>
<tspan x="10" y="3754">.html/coverage.json</tspan>

<tspan x="10" y="3770">wrote file - coverage-report - /tmp/npmTestPublished/node_modules/apidoc-lite/tmp/build/coverage\</tspan>
<tspan x="10" y="3786">.html/coverage.include.json</tspan>

<tspan x="10" y="3802">wrote file - coverage-report - /tmp/npmTestPublished/node_modules/apidoc-lite/tmp/build/coverage\</tspan>
<tspan x="10" y="3818">.badge.svg</tspan>

<tspan x="10" y="3834">istanbul - created coverage file /tmp/npmTestPublished/node_modules/apidoc-lite/tmp/build/covera\</tspan>
<tspan x="10" y="3850">ge.html/index.html</tspan>

<tspan x="10" y="3866"></tspan>

<tspan x="10" y="3882">-------------------------------------------------------</tspan>

<tspan x="10" y="3898">| test-report - npmTestPublished - browser - / - Mozilla/5.0 (X11; Linux x86_64) AppleWebKit/537\</tspan>
<tspan x="10" y="3914">.36 (KHTML, like Gecko) HeadlessChrome/83.0.4103.97 Safari/537.36 - 2020-06-09T06:48:57.364Z</tspan>

<tspan x="10" y="3930">|      20 ms            0 failed        3 passed      |</tspan>

<tspan x="10" y="3946">-------------------------------------------------------</tspan>

<tspan x="10" y="3962">| test-report - npmTestPublished - node - linux v14.4.0 - 2020-06-09T06:48:55.617Z</tspan>

<tspan x="10" y="3978">|    5741 ms            0 failed        9 passed      |</tspan>

<tspan x="10" y="3994">-------------------------------------------------------</tspan>

<tspan x="10" y="4010"></tspan>

<tspan x="10" y="4026">wrote file - test-report - /tmp/npmTestPublished/node_modules/apidoc-lite/tmp/build/test-report.\</tspan>
<tspan x="10" y="4042">html</tspan>

<tspan x="10" y="4058">wrote file - test-report - /tmp/npmTestPublished/node_modules/apidoc-lite/tmp/build/build.badge.\</tspan>
<tspan x="10" y="4074">svg</tspan>

<tspan x="10" y="4090">wrote file - test-report - /tmp/npmTestPublished/node_modules/apidoc-lite/tmp/build/test-report.\</tspan>
<tspan x="10" y="4106">badge.svg</tspan>

<tspan x="10" y="4122"></tspan>

<tspan x="10" y="4138">npmTestPublished - 0 failed tests</tspan>

<tspan x="10" y="4154"></tspan>

<tspan x="10" y="4170"></tspan>

<tspan x="10" y="4186">\x1b[35m[MODE_BUILD=npmTestPublished]\x1b[0m - 2020-06-09T06:49:02.156Z - EXIT_CODE - 0</tspan>

</text>
</svg>
