<svg height="782" width="720" xmlns="http://www.w3.org/2000/svg">
<rect height="782" fill="#555" width="720"></rect>
<text fill="#7f7" font-family="Courier New" font-size="12" xml:space="preserve">
<tspan x="10" y="26">2018-08-08 22:02:05 +0700u000a[npm publish] - npm publish 2018.5.25</tspan>

<tspan x="10" y="42">- migrate from modeJs -&gt; isBrowser</tspan>

<tspan x="10" y="58">- update build</tspan>

<tspan x="10" y="74"></tspan>

<tspan x="10" y="90">2018-05-02 19:16:05 +0800u000a[npm publish] - npm publish 2018.5.2</tspan>

<tspan x="10" y="106">- update build</tspan>

<tspan x="10" y="122"></tspan>

<tspan x="10" y="138">2018-04-13 13:28:20 +0800u000a[npm publish] - npm publish v2017.4.12</tspan>

<tspan x="10" y="154">- improve error-handling for misbehaving property-accessors</tspan>

<tspan x="10" y="170">- fix build-ci for nodejs v9.x</tspan>

<tspan x="10" y="186"></tspan>

<tspan x="10" y="202">2018-04-03 16:29:35 +0800u000a[npm publish] - npm publish v2017.4.2</tspan>

<tspan x="10" y="218">- replace option htmlBr with markdownToHtml in function templateRender</tspan>

<tspan x="10" y="234">- update function apidocCreate with extra param options.whitelistDict</tspan>

<tspan x="10" y="250"></tspan>

<tspan x="10" y="266">2018-01-14 22:38:51 +0700u000a[npm publish] - npm publish 2017.1.13</tspan>

<tspan x="10" y="282">- update build</tspan>

<tspan x="10" y="298"></tspan>

<tspan x="10" y="314">2017-10-24 22:25:24 +0800u000a[npm publish] - npm publish 2017.10.23</tspan>

<tspan x="10" y="330">- fix assert-module bug</tspan>

<tspan x="10" y="346">- fix test-coverage</tspan>

<tspan x="10" y="362"></tspan>

<tspan x="10" y="378">2017-09-13 17:34:47 +0700u000a[npm publish] - npm publish 2017.9.12</tspan>

<tspan x="10" y="394">- add cli-help doc to README.md</tspan>

<tspan x="10" y="410"></tspan>

<tspan x="10" y="426">2017-05-31 16:32:09 +0800u000a[npm publish] - npm publish 2017.5.30</tspan>

<tspan x="10" y="442">- fix 'use strict' bug in firefox and safari</tspan>

<tspan x="10" y="458">- revamp README.md</tspan>

<tspan x="10" y="474"></tspan>

<tspan x="10" y="490">2017-04-23 14:15:27 +0800u000a[npm publish] - npm publish 2017.4.22</tspan>

<tspan x="10" y="506">- limit exampleList to 256 examples to handle edge-cases with many example-files like lodash</tspan>

<tspan x="10" y="522">- generalize function apidocCreate to handle more real-world npm-modules</tspan>

<tspan x="10" y="538">- try to document all .js files in first 3-levels of directories using param libFileList</tspan>

<tspan x="10" y="554">- use breadth-first for files to add to param libFileList in function apidocCreate</tspan>

<tspan x="10" y="570"></tspan>

<tspan x="10" y="586">2017-03-17 20:57:12 +0800u000a[npm publish] - npm publish 2017.3.16</tspan>

<tspan x="10" y="602">- revert npm_package_nameAlias back to npm_package_name</tspan>

<tspan x="10" y="618"></tspan>

<tspan x="10" y="634">2017-03-10 20:24:53 +0800u000a- npm publish 2017.3.9</tspan>

<tspan x="10" y="650">- add ability to create markdown documentation</tspan>

<tspan x="10" y="666">- auto-document dir ./lib/</tspan>

<tspan x="10" y="682">- increase auto-coverage of examples</tspan>

<tspan x="10" y="698"></tspan>

<tspan x="10" y="714">2017-03-03 04:18:06 +0800u000a- npm publish 2017.2.27</tspan>

<tspan x="10" y="730">- successful travis-ci build</tspan>

<tspan x="10" y="746"></tspan>

<tspan x="10" y="762">2014-03-26 02:31:50 +0700u000aadd blank README.md</tspan>

</text>
</svg>
