<svg height="734" width="720" xmlns="http://www.w3.org/2000/svg">
<rect height="734" fill="#555" width="720"></rect>
<text fill="#7f7" font-family="Courier New" font-size="12" xml:space="preserve">
<tspan x="10" y="26"></tspan>

<tspan x="10" y="42">[MODE_BUILD=buildApp] - 2018-09-29T19:48:19.671Z - npm-testing /home/travis/build/kaizhu256/node\</tspan>
<tspan x="10" y="58">-apidoc-lite</tspan>

<tspan x="10" y="74"></tspan>

<tspan x="10" y="90"></tspan>

<tspan x="10" y="106">buildApp - merged test-report from file /home/travis/build/kaizhu256/node-apidoc-lite/tmp/build/\</tspan>
<tspan x="10" y="122">test-report.json</tspan>

<tspan x="10" y="138">&gt; server listening on http-port 62558</tspan>

<tspan x="10" y="154">db - dropping database ...</tspan>

<tspan x="10" y="170">&gt; server listening on http-port 45552</tspan>

<tspan x="10" y="186">testRunDefault - 25460 ms - testCase pending - testCase_buildApp_default ...</tspan>

<tspan x="10" y="202">testRunDefault - 29427 ms - [node test-case 1 of 1 passed] - testCase_buildApp_default</tspan>

<tspan x="10" y="218"></tspan>

<tspan x="10" y="234">buildApp - merged test-report from file /home/travis/build/kaizhu256/node-apidoc-lite/tmp/build/\</tspan>
<tspan x="10" y="250">test-report.json</tspan>

<tspan x="10" y="266"></tspan>

<tspan x="10" y="282">-------------------------------------------------------</tspan>

<tspan x="10" y="298">| test-report - buildApidoc - node - linux v10.11.0 - 2018-09-29T19:47:57.618Z</tspan>

<tspan x="10" y="314">|   29428 ms            0 failed        1 passed      |</tspan>

<tspan x="10" y="330">-------------------------------------------------------</tspan>

<tspan x="10" y="346">| test-report - npmTest - browser - / - Mozilla/5.0 (X11; Linux x86_64) AppleWebKit/537.36 (KHTM\</tspan>
<tspan x="10" y="362">L, like Gecko) Chrome/61.0.3163.100 Electron/2.0.10 Safari/537.36 - 2018-09-29T19:47:48.574Z</tspan>

<tspan x="10" y="378">|    1040 ms            0 failed        2 passed      |</tspan>

<tspan x="10" y="394">-------------------------------------------------------</tspan>

<tspan x="10" y="410">| test-report - npmTest - node - linux v10.11.0 - 2018-09-29T19:47:45.733Z</tspan>

<tspan x="10" y="426">|    8909 ms            0 failed        9 passed      |</tspan>

<tspan x="10" y="442">-------------------------------------------------------</tspan>

<tspan x="10" y="458">| test-report - npmTestPublished - browser - / - Mozilla/5.0 (X11; Linux x86_64) AppleWebKit/537\</tspan>
<tspan x="10" y="474">.36 (KHTML, like Gecko) Chrome/61.0.3163.100 Electron/2.0.10 Safari/537.36 - 2018-09-29T19:47:35\</tspan>
<tspan x="10" y="490">.453Z</tspan>

<tspan x="10" y="506">|    1018 ms            0 failed        2 passed      |</tspan>

<tspan x="10" y="522">-------------------------------------------------------</tspan>

<tspan x="10" y="538">| test-report - npmTestPublished - node - linux v10.11.0 - 2018-09-29T19:47:32.288Z</tspan>

<tspan x="10" y="554">|    8727 ms            0 failed        9 passed      |</tspan>

<tspan x="10" y="570">-------------------------------------------------------</tspan>

<tspan x="10" y="586"></tspan>

<tspan x="10" y="602">created test-report file /home/travis/build/kaizhu256/node-apidoc-lite/tmp/build/test-report.htm\</tspan>
<tspan x="10" y="618">l</tspan>

<tspan x="10" y="634"></tspan>

<tspan x="10" y="650"></tspan>

<tspan x="10" y="666">buildApp - 0 failed tests</tspan>

<tspan x="10" y="682"></tspan>

<tspan x="10" y="698"></tspan>

<tspan x="10" y="714">[MODE_BUILD=buildApp] - 2018-09-29T19:48:28.427Z - EXIT_CODE - 0</tspan>

</text>
</svg>
