<svg height="1422" width="720" xmlns="http://www.w3.org/2000/svg">
<rect height="1422" fill="#555" width="720"></rect>
<text fill="#7f7" font-family="Courier New" font-size="12" xml:space="preserve">
<tspan x="10" y="26">2020-06-06 22:50:01 +0000</tspan>

<tspan x="10" y="42">travis-ci.com</tspan>

<tspan x="10" y="58"></tspan>

<tspan x="10" y="74">2020-06-06 17:47:19 -0500</tspan>

<tspan x="10" y="90">update</tspan>

<tspan x="10" y="106"></tspan>

<tspan x="10" y="122">2020-06-06 17:46:57 -0500</tspan>

<tspan x="10" y="138">update</tspan>

<tspan x="10" y="154"></tspan>

<tspan x="10" y="170">2020-03-17 02:10:50 -0500</tspan>

<tspan x="10" y="186">[build clean]</tspan>

<tspan x="10" y="202"></tspan>

<tspan x="10" y="218">2020-03-17 01:56:49 -0500</tspan>

<tspan x="10" y="234">[npm publish] - npm publish 2020.3.16</tspan>

<tspan x="10" y="250">- jslint - remove ternary-operator/newline comment preceding bra</tspan>

<tspan x="10" y="266">- update build</tspan>

<tspan x="10" y="282"></tspan>

<tspan x="10" y="298">2019-08-17 17:15:31 +0000</tspan>

<tspan x="10" y="314">[npm publish] - npm publish 2019.8.16</tspan>

<tspan x="10" y="330">- update build</tspan>

<tspan x="10" y="346"></tspan>

<tspan x="10" y="362">2018-09-30 02:36:28 +0700</tspan>

<tspan x="10" y="378">[npm publish] - npm publish 2018.9.29</tspan>

<tspan x="10" y="394">- migrate to new jslint (2018-09)</tspan>

<tspan x="10" y="410">- migrate from modeJs -&gt; isBrowser</tspan>

<tspan x="10" y="426">- update build</tspan>

<tspan x="10" y="442"></tspan>

<tspan x="10" y="458">2018-08-08 22:02:05 +0700</tspan>

<tspan x="10" y="474">[npm publish] - npm publish 2018.5.25</tspan>

<tspan x="10" y="490">- migrate from modeJs -&gt; isBrowser</tspan>

<tspan x="10" y="506">- update build</tspan>

<tspan x="10" y="522"></tspan>

<tspan x="10" y="538">2018-05-02 19:16:05 +0800</tspan>

<tspan x="10" y="554">[npm publish] - npm publish 2018.5.2</tspan>

<tspan x="10" y="570">- update build</tspan>

<tspan x="10" y="586"></tspan>

<tspan x="10" y="602">2018-04-13 13:28:20 +0800</tspan>

<tspan x="10" y="618">[npm publish] - npm publish v2017.4.12</tspan>

<tspan x="10" y="634">- improve error-handling for misbehaving property-accessors</tspan>

<tspan x="10" y="650">- fix build-ci for nodejs v9.x</tspan>

<tspan x="10" y="666"></tspan>

<tspan x="10" y="682">2018-04-03 16:29:35 +0800</tspan>

<tspan x="10" y="698">[npm publish] - npm publish v2017.4.2</tspan>

<tspan x="10" y="714">- replace option htmlBr with markdownToHtml in function templateRender</tspan>

<tspan x="10" y="730">- update function apidocCreate with extra param options.whitelistDict</tspan>

<tspan x="10" y="746"></tspan>

<tspan x="10" y="762">2018-01-14 22:38:51 +0700</tspan>

<tspan x="10" y="778">[npm publish] - npm publish 2017.1.13</tspan>

<tspan x="10" y="794">- update build</tspan>

<tspan x="10" y="810"></tspan>

<tspan x="10" y="826">2017-10-24 22:25:24 +0800</tspan>

<tspan x="10" y="842">[npm publish] - npm publish 2017.10.23</tspan>

<tspan x="10" y="858">- fix assert-module bug</tspan>

<tspan x="10" y="874">- fix test-coverage</tspan>

<tspan x="10" y="890"></tspan>

<tspan x="10" y="906">2017-09-13 17:34:47 +0700</tspan>

<tspan x="10" y="922">[npm publish] - npm publish 2017.9.12</tspan>

<tspan x="10" y="938">- add cli-help doc to README.md</tspan>

<tspan x="10" y="954"></tspan>

<tspan x="10" y="970">2017-05-31 16:32:09 +0800</tspan>

<tspan x="10" y="986">[npm publish] - npm publish 2017.5.30</tspan>

<tspan x="10" y="1002">- fix 'use strict' bug in firefox and safari</tspan>

<tspan x="10" y="1018">- revamp README.md</tspan>

<tspan x="10" y="1034"></tspan>

<tspan x="10" y="1050">2017-04-23 14:15:27 +0800</tspan>

<tspan x="10" y="1066">[npm publish] - npm publish 2017.4.22</tspan>

<tspan x="10" y="1082">- limit exampleList to 256 examples to handle edge-cases with many example-files like lodash</tspan>

<tspan x="10" y="1098">- generalize function apidocCreate to handle more real-world npm-modules</tspan>

<tspan x="10" y="1114">- try to document all .js files in first 3-levels of directories using param libFileList</tspan>

<tspan x="10" y="1130">- use breadth-first for files to add to param libFileList in function apidocCreate</tspan>

<tspan x="10" y="1146"></tspan>

<tspan x="10" y="1162">2017-03-17 20:57:12 +0800</tspan>

<tspan x="10" y="1178">[npm publish] - npm publish 2017.3.16</tspan>

<tspan x="10" y="1194">- revert npm_package_nameAlias back to npm_package_name</tspan>

<tspan x="10" y="1210"></tspan>

<tspan x="10" y="1226">2017-03-10 20:24:53 +0800</tspan>

<tspan x="10" y="1242">- npm publish 2017.3.9</tspan>

<tspan x="10" y="1258">- add ability to create markdown documentation</tspan>

<tspan x="10" y="1274">- auto-document dir ./lib/</tspan>

<tspan x="10" y="1290">- increase auto-coverage of examples</tspan>

<tspan x="10" y="1306"></tspan>

<tspan x="10" y="1322">2017-03-03 04:18:06 +0800</tspan>

<tspan x="10" y="1338">- npm publish 2017.2.27</tspan>

<tspan x="10" y="1354">- successful travis-ci build</tspan>

<tspan x="10" y="1370"></tspan>

<tspan x="10" y="1386">2014-03-26 02:31:50 +0700</tspan>

<tspan x="10" y="1402">add blank README.md</tspan>

</text>
</svg>
