<svg height="1998" width="720" xmlns="http://www.w3.org/2000/svg">
<rect height="1998" fill="#555" width="720"></rect>
<text fill="#7f7" font-family="Courier New" font-size="12" xml:space="preserve">
<tspan x="10" y="26">2020-06-06 20:35:21 -0500</tspan>

<tspan x="10" y="42">- remove eagerly requiring builtins:</tspan>

<tspan x="10" y="58"></tspan>

<tspan x="10" y="74">2020-06-06 20:31:57 -0500</tspan>

<tspan x="10" y="90">- remove eagerly requiring builtins:</tspan>

<tspan x="10" y="106"></tspan>

<tspan x="10" y="122">2020-06-06 20:23:55 -0500</tspan>

<tspan x="10" y="138">- remove eagerly requiring builtins:</tspan>

<tspan x="10" y="154">    buffer,</tspan>

<tspan x="10" y="170">    dgam,</tspan>

<tspan x="10" y="186">    dns,</tspan>

<tspan x="10" y="202">    vm,</tspan>

<tspan x="10" y="218">    tls,</tspan>

<tspan x="10" y="234">    tty,</tspan>

<tspan x="10" y="250">    zlib</tspan>

<tspan x="10" y="266"></tspan>

<tspan x="10" y="282">2020-06-06 20:17:40 -0500</tspan>

<tspan x="10" y="298">- remove eagerly requiring builtins:</tspan>

<tspan x="10" y="314">    buffer,</tspan>

<tspan x="10" y="330">    dgam,</tspan>

<tspan x="10" y="346">    dns,</tspan>

<tspan x="10" y="362">    vm,</tspan>

<tspan x="10" y="378">    tls,</tspan>

<tspan x="10" y="394">    tty,</tspan>

<tspan x="10" y="410">    zlib</tspan>

<tspan x="10" y="426"></tspan>

<tspan x="10" y="442">2020-06-06 20:11:09 -0500</tspan>

<tspan x="10" y="458">- remove eagerly requiring builtins:</tspan>

<tspan x="10" y="474">    buffer,</tspan>

<tspan x="10" y="490">    dgam,</tspan>

<tspan x="10" y="506">    dns,</tspan>

<tspan x="10" y="522">    vm,</tspan>

<tspan x="10" y="538">    tls,</tspan>

<tspan x="10" y="554">    tty,</tspan>

<tspan x="10" y="570">    zlib</tspan>

<tspan x="10" y="586"></tspan>

<tspan x="10" y="602">2020-06-06 22:50:01 +0000</tspan>

<tspan x="10" y="618">travis-ci.com</tspan>

<tspan x="10" y="634"></tspan>

<tspan x="10" y="650">2020-06-06 17:47:19 -0500</tspan>

<tspan x="10" y="666">update</tspan>

<tspan x="10" y="682"></tspan>

<tspan x="10" y="698">2020-06-06 17:46:57 -0500</tspan>

<tspan x="10" y="714">update</tspan>

<tspan x="10" y="730"></tspan>

<tspan x="10" y="746">2020-03-17 02:10:50 -0500</tspan>

<tspan x="10" y="762">[build clean]</tspan>

<tspan x="10" y="778"></tspan>

<tspan x="10" y="794">2020-03-17 01:56:49 -0500</tspan>

<tspan x="10" y="810">[npm publish] - npm publish 2020.3.16</tspan>

<tspan x="10" y="826">- jslint - remove ternary-operator/newline comment preceding bra</tspan>

<tspan x="10" y="842">- update build</tspan>

<tspan x="10" y="858"></tspan>

<tspan x="10" y="874">2019-08-17 17:15:31 +0000</tspan>

<tspan x="10" y="890">[npm publish] - npm publish 2019.8.16</tspan>

<tspan x="10" y="906">- update build</tspan>

<tspan x="10" y="922"></tspan>

<tspan x="10" y="938">2018-09-30 02:36:28 +0700</tspan>

<tspan x="10" y="954">[npm publish] - npm publish 2018.9.29</tspan>

<tspan x="10" y="970">- migrate to new jslint (2018-09)</tspan>

<tspan x="10" y="986">- migrate from modeJs -&gt; isBrowser</tspan>

<tspan x="10" y="1002">- update build</tspan>

<tspan x="10" y="1018"></tspan>

<tspan x="10" y="1034">2018-08-08 22:02:05 +0700</tspan>

<tspan x="10" y="1050">[npm publish] - npm publish 2018.5.25</tspan>

<tspan x="10" y="1066">- migrate from modeJs -&gt; isBrowser</tspan>

<tspan x="10" y="1082">- update build</tspan>

<tspan x="10" y="1098"></tspan>

<tspan x="10" y="1114">2018-05-02 19:16:05 +0800</tspan>

<tspan x="10" y="1130">[npm publish] - npm publish 2018.5.2</tspan>

<tspan x="10" y="1146">- update build</tspan>

<tspan x="10" y="1162"></tspan>

<tspan x="10" y="1178">2018-04-13 13:28:20 +0800</tspan>

<tspan x="10" y="1194">[npm publish] - npm publish v2017.4.12</tspan>

<tspan x="10" y="1210">- improve error-handling for misbehaving property-accessors</tspan>

<tspan x="10" y="1226">- fix build-ci for nodejs v9.x</tspan>

<tspan x="10" y="1242"></tspan>

<tspan x="10" y="1258">2018-04-03 16:29:35 +0800</tspan>

<tspan x="10" y="1274">[npm publish] - npm publish v2017.4.2</tspan>

<tspan x="10" y="1290">- replace option htmlBr with markdownToHtml in function templateRender</tspan>

<tspan x="10" y="1306">- update function apidocCreate with extra param options.whitelistDict</tspan>

<tspan x="10" y="1322"></tspan>

<tspan x="10" y="1338">2018-01-14 22:38:51 +0700</tspan>

<tspan x="10" y="1354">[npm publish] - npm publish 2017.1.13</tspan>

<tspan x="10" y="1370">- update build</tspan>

<tspan x="10" y="1386"></tspan>

<tspan x="10" y="1402">2017-10-24 22:25:24 +0800</tspan>

<tspan x="10" y="1418">[npm publish] - npm publish 2017.10.23</tspan>

<tspan x="10" y="1434">- fix assert-module bug</tspan>

<tspan x="10" y="1450">- fix test-coverage</tspan>

<tspan x="10" y="1466"></tspan>

<tspan x="10" y="1482">2017-09-13 17:34:47 +0700</tspan>

<tspan x="10" y="1498">[npm publish] - npm publish 2017.9.12</tspan>

<tspan x="10" y="1514">- add cli-help doc to README.md</tspan>

<tspan x="10" y="1530"></tspan>

<tspan x="10" y="1546">2017-05-31 16:32:09 +0800</tspan>

<tspan x="10" y="1562">[npm publish] - npm publish 2017.5.30</tspan>

<tspan x="10" y="1578">- fix 'use strict' bug in firefox and safari</tspan>

<tspan x="10" y="1594">- revamp README.md</tspan>

<tspan x="10" y="1610"></tspan>

<tspan x="10" y="1626">2017-04-23 14:15:27 +0800</tspan>

<tspan x="10" y="1642">[npm publish] - npm publish 2017.4.22</tspan>

<tspan x="10" y="1658">- limit exampleList to 256 examples to handle edge-cases with many example-files like lodash</tspan>

<tspan x="10" y="1674">- generalize function apidocCreate to handle more real-world npm-modules</tspan>

<tspan x="10" y="1690">- try to document all .js files in first 3-levels of directories using param libFileList</tspan>

<tspan x="10" y="1706">- use breadth-first for files to add to param libFileList in function apidocCreate</tspan>

<tspan x="10" y="1722"></tspan>

<tspan x="10" y="1738">2017-03-17 20:57:12 +0800</tspan>

<tspan x="10" y="1754">[npm publish] - npm publish 2017.3.16</tspan>

<tspan x="10" y="1770">- revert npm_package_nameAlias back to npm_package_name</tspan>

<tspan x="10" y="1786"></tspan>

<tspan x="10" y="1802">2017-03-10 20:24:53 +0800</tspan>

<tspan x="10" y="1818">- npm publish 2017.3.9</tspan>

<tspan x="10" y="1834">- add ability to create markdown documentation</tspan>

<tspan x="10" y="1850">- auto-document dir ./lib/</tspan>

<tspan x="10" y="1866">- increase auto-coverage of examples</tspan>

<tspan x="10" y="1882"></tspan>

<tspan x="10" y="1898">2017-03-03 04:18:06 +0800</tspan>

<tspan x="10" y="1914">- npm publish 2017.2.27</tspan>

<tspan x="10" y="1930">- successful travis-ci build</tspan>

<tspan x="10" y="1946"></tspan>

<tspan x="10" y="1962">2014-03-26 02:31:50 +0700</tspan>

<tspan x="10" y="1978">add blank README.md</tspan>

</text>
</svg>
